<svg xmlns="http://www.w3.org/2000/svg" viewBox="0 0 128 128" width="128" height="128">
  <rect width="128" height="128" rx="16" fill="#090d16"/>
  <rect x="8" y="8" width="112" height="28" rx="8" fill="rgba(30,41,59,0.4)" stroke="rgba(255,255,255,0.06)" stroke-width="0.5"/>
  <rect x="16" y="15" width="40" height="5" rx="2.5" fill="rgba(241,245,249,0.5)"/>
  <rect x="60" y="15" width="20" height="5" rx="2.5" fill="rgba(148,163,184,0.3)"/>
  <rect x="84" y="15" width="20" height="5" rx="2.5" fill="rgba(148,163,184,0.3)"/>
  <rect x="8" y="42" width="112" height="56" rx="8" fill="rgba(30,41,59,0.3)" stroke="rgba(255,255,255,0.04)" stroke-width="0.5"/>
  <rect x="16" y="50" width="36" height="5" rx="2.5" fill="rgba(6,182,212,0.7)"/>
  <rect x="16" y="60" width="16" height="3" rx="1.5" fill="rgba(148,163,184,0.4)"/>
  <circle cx="112" cy="52" r="4" fill="rgba(239,68,68,0.6)"/>
  <circle cx="102" cy="52" r="4" fill="rgba(148,163,184,0.3)"/>
  <g transform="translate(70,46)">
    <circle cx="4" cy="4" r="3.5" fill="none" stroke="rgba(255,255,255,0.1)" stroke-width="1"/>
    <circle cx="14" cy="4" r="3.5" fill="rgba(6,182,212,0.8)"/>
    <text x="12.5" y="5.5" font-size="4" fill="#090d16" font-weight="bold" text-anchor="middle">✓</text>
    <circle cx="24" cy="4" r="3.5" fill="rgba(6,182,212,0.8)"/>
    <text x="22.5" y="5.5" font-size="4" fill="#090d16" font-weight="bold" text-anchor="middle">✓</text>
    <circle cx="34" cy="4" r="3.5" fill="rgba(6,182,212,0.8)"/>
    <text x="32.5" y="5.5" font-size="4" fill="#090d16" font-weight="bold" text-anchor="middle">✓</text>
    <circle cx="44" cy="4" r="3.5" fill="none" stroke="rgba(255,255,255,0.15)" stroke-width="1"/>
    <circle cx="54" cy="4" r="3.5" fill="rgba(6,182,212,0.8)"/>
  </g>
  <g transform="translate(70,66)">
    <circle cx="4" cy="4" r="3.5" fill="rgba(6,182,212,0.6)"/>
    <circle cx="14" cy="4" r="3.5" fill="none" stroke="rgba(255,255,255,0.1)" stroke-width="1"/>
    <circle cx="24" cy="4" r="3.5" fill="rgba(6,182,212,0.6)"/>
    <circle cx="34" cy="4" r="3.5" fill="rgba(6,182,212,0.6)"/>
    <circle cx="44" cy="4" r="3.5" fill="rgba(6,182,212,0.6)"/>
    <circle cx="54" cy="4" r="3.5" fill="rgba(6,182,212,0.6)"/>
  </g>
  <rect x="16" y="80" width="12" height="4" rx="2" fill="rgba(16,185,129,0.6)"/>
  <rect x="32" y="80" width="12" height="4" rx="2" fill="rgba(245,158,11,0.5)"/>
  <text x="16" y="94" font-size="4.5" fill="rgba(148,163,184,0.5)" font-family="monospace">🔥 3</text>
  <g transform="translate(98,78)">
    <rect width="12" height="10" rx="3" fill="rgba(217,70,239,0.15)" stroke="rgba(217,70,239,0.3)" stroke-width="0.5"/>
    <text x="6" y="7" font-size="5" fill="rgba(217,70,239,0.6)" text-anchor="middle" font-family="monospace">📊</text>
  </g>
  <rect x="8" y="104" width="112" height="16" rx="6" fill="rgba(30,41,59,0.25)" stroke="rgba(255,255,255,0.03)" stroke-width="0.5"/>
  <rect x="16" y="110" width="96" height="4" rx="2" fill="rgba(255,255,255,0.04)"/>
  <rect x="16" y="110" width="52" height="4" rx="2" fill="rgba(6,182,212,0.5)"/>
</svg>
