<svg xmlns="http://www.w3.org/2000/svg" viewBox="0 0 128 128" width="128" height="128">
  <rect width="128" height="128" rx="16" fill="#0b0c10"/>
  <g transform="translate(14,8)">
    <rect x="0" y="0" width="100" height="18" rx="8" fill="rgba(30,41,59,0.4)" stroke="rgba(51,65,85,0.35)" stroke-width="0.5"/>
    <text x="14" y="12" font-size="4.5" fill="#475569" font-family="sans-serif" letter-spacing="1">SCORE</text>
    <text x="14" y="6" font-size="7" fill="#e2e8f0" font-weight="700" font-family="sans-serif">120</text>
    <text x="46" y="12" font-size="4.5" fill="#475569" font-family="sans-serif" letter-spacing="1">STREAK</text>
    <text x="46" y="6" font-size="7" fill="#e2e8f0" font-weight="700" font-family="sans-serif">7</text>
    <text x="78" y="12" font-size="4.5" fill="#475569" font-family="sans-serif" letter-spacing="1">BEST</text>
    <text x="78" y="6" font-size="7" fill="#e2e8f0" font-weight="700" font-family="sans-serif">12</text>
  </g>
  <g transform="translate(14,34)">
    <rect x="0" y="0" width="100" height="26" rx="10" fill="rgba(30,41,59,0.4)" stroke="rgba(51,65,85,0.35)" stroke-width="0.5"/>
    <text x="50" y="10" font-size="4" fill="#475569" text-anchor="middle" font-family="sans-serif" letter-spacing="1">MATCH THIS HEX CODE</text>
    <text x="50" y="21" font-size="10" fill="#e2e8f0" text-anchor="middle" font-family="monospace" font-weight="700" letter-spacing="2">#10B981</text>
  </g>
  <g transform="translate(16,70)">
    <circle cx="20" cy="20" r="18" fill="#22C55E" stroke="rgba(51,65,85,0.35)" stroke-width="2"/>
    <circle cx="64" cy="20" r="18" fill="#10B981" stroke="rgba(255,255,255,0.15)" stroke-width="2.5"/>
    <circle cx="64" cy="20" r="18" fill="none" stroke="#10b981" stroke-width="2.5" opacity="0.5" transform="scale(1.08) translate(-4,-1.5)"/>
    <circle cx="108" cy="20" r="18" fill="#3B82F6" stroke="rgba(51,65,85,0.35)" stroke-width="2"/>
  </g>
  <g transform="translate(22,112)">
    <rect x="0" y="0" width="42" height="10" rx="5" fill="#38bdf8"/>
    <text x="21" y="7" font-size="4.5" fill="#fff" text-anchor="middle" font-family="sans-serif" font-weight="600">▶ NEXT</text>
  </g>
  <g transform="translate(68,112)">
    <rect x="0" y="0" width="42" height="10" rx="5" fill="rgba(30,41,59,0.4)" stroke="rgba(51,65,85,0.35)" stroke-width="0.5"/>
    <text x="21" y="7" font-size="4.5" fill="#94a3b8" text-anchor="middle" font-family="sans-serif">⟳ NEW</text>
  </g>
</svg>
