<svg xmlns="http://www.w3.org/2000/svg" viewBox="0 0 128 128" width="128" height="128">
  <rect width="128" height="128" rx="16" fill="#070814"/>
  <g transform="translate(12,8)">
    <rect x="0" y="0" width="104" height="18" rx="8" fill="rgba(30,41,59,0.35)" stroke="rgba(51,65,85,0.35)" stroke-width="0.5"/>
    <text x="14" y="12" font-size="5" fill="#475569" font-family="sans-serif" letter-spacing="1">LEVEL</text>
    <text x="14" y="6" font-size="7" fill="#e2e8f0" font-weight="700" font-family="sans-serif">3</text>
    <text x="46" y="12" font-size="5" fill="#475569" font-family="sans-serif" letter-spacing="1">BEST</text>
    <text x="46" y="6" font-size="7" fill="#e2e8f0" font-weight="700" font-family="sans-serif">7</text>
    <text x="80" y="10" font-size="6" fill="#94a3b8" font-family="sans-serif">Press Start</text>
  </g>
  <g transform="translate(14,36)">
    <rect x="0" y="0" width="100" height="66" rx="10" fill="rgba(30,41,59,0.35)" stroke="rgba(51,65,85,0.35)" stroke-width="0.8"/>
    <g transform="translate(4,4)">
      <!-- 5x5 grid tiles (small) -->
      <rect x="0" y="0" width="16.8" height="16.8" rx="4" fill="rgba(255,255,255,0.03)" stroke="rgba(51,65,85,0.35)" stroke-width="0.5"/>
      <rect x="18.8" y="0" width="16.8" height="16.8" rx="4" fill="rgba(255,255,255,0.03)" stroke="rgba(51,65,85,0.35)" stroke-width="0.5"/>
      <rect x="37.6" y="0" width="16.8" height="16.8" rx="4" fill="rgba(255,255,255,0.03)" stroke="rgba(51,65,85,0.35)" stroke-width="0.5"/>
      <rect x="56.4" y="0" width="16.8" height="16.8" rx="4" fill="rgba(255,255,255,0.03)" stroke="rgba(51,65,85,0.35)" stroke-width="0.5"/>
      <rect x="75.2" y="0" width="16.8" height="16.8" rx="4" fill="rgba(255,255,255,0.03)" stroke="rgba(51,65,85,0.35)" stroke-width="0.5"/>

      <rect x="0" y="18.8" width="16.8" height="16.8" rx="4" fill="rgba(255,255,255,0.03)" stroke="rgba(51,65,85,0.35)" stroke-width="0.5"/>
      <rect x="18.8" y="18.8" width="16.8" height="16.8" rx="4" fill="#10b981" stroke="#10b981" stroke-width="0.8" opacity="0.6"/>
      <rect x="37.6" y="18.8" width="16.8" height="16.8" rx="4" fill="#10b981" stroke="#10b981" stroke-width="0.8" opacity="0.6"/>
      <rect x="56.4" y="18.8" width="16.8" height="16.8" rx="4" fill="rgba(255,255,255,0.03)" stroke="rgba(51,65,85,0.35)" stroke-width="0.5"/>
      <rect x="75.2" y="18.8" width="16.8" height="16.8" rx="4" fill="rgba(255,255,255,0.03)" stroke="rgba(51,65,85,0.35)" stroke-width="0.5"/>

      <rect x="0" y="37.6" width="16.8" height="16.8" rx="4" fill="rgba(255,255,255,0.03)" stroke="rgba(51,65,85,0.35)" stroke-width="0.5"/>
      <rect x="18.8" y="37.6" width="16.8" height="16.8" rx="4" fill="#10b981" stroke="#10b981" stroke-width="0.8" opacity="0.6"/>
      <rect x="37.6" y="37.6" width="16.8" height="16.8" rx="4" fill="#38bdf8" stroke="#38bdf8" stroke-width="0.8" opacity="0.6"/>
      <rect x="56.4" y="37.6" width="16.8" height="16.8" rx="4" fill="#38bdf8" stroke="#38bdf8" stroke-width="0.8" opacity="0.6"/>
      <rect x="75.2" y="37.6" width="16.8" height="16.8" rx="4" fill="rgba(255,255,255,0.03)" stroke="rgba(51,65,85,0.35)" stroke-width="0.5"/>

      <rect x="0" y="56.4" width="16.8" height="16.8" rx="4" fill="rgba(255,255,255,0.03)" stroke="rgba(51,65,85,0.35)" stroke-width="0.5"/>
      <rect x="18.8" y="56.4" width="16.8" height="16.8" rx="4" fill="rgba(255,255,255,0.03)" stroke="rgba(51,65,85,0.35)" stroke-width="0.5"/>
      <rect x="37.6" y="56.4" width="16.8" height="16.8" rx="4" fill="#38bdf8" stroke="#38bdf8" stroke-width="0.8" opacity="0.6"/>
      <rect x="56.4" y="56.4" width="16.8" height="16.8" rx="4" fill="rgba(255,255,255,0.03)" stroke="rgba(51,65,85,0.35)" stroke-width="0.5"/>
      <rect x="75.2" y="56.4" width="16.8" height="16.8" rx="4" fill="rgba(255,255,255,0.03)" stroke="rgba(51,65,85,0.35)" stroke-width="0.5"/>
    </g>
  </g>
  <g transform="translate(20,112)">
    <rect x="0" y="0" width="42" height="10" rx="5" fill="#38bdf8"/>
    <text x="21" y="7" font-size="4.5" fill="#fff" text-anchor="middle" font-family="sans-serif" font-weight="600">▶ START</text>
  </g>
  <g transform="translate(68,112)">
    <rect x="0" y="0" width="42" height="10" rx="5" fill="rgba(30,41,59,0.35)" stroke="rgba(51,65,85,0.35)" stroke-width="0.5"/>
    <text x="21" y="7" font-size="4.5" fill="#94a3b8" text-anchor="middle" font-family="sans-serif">⟳ RESET</text>
  </g>
</svg>
